<svg width="24" height="24" viewBox="0 0 24 24" fill="none" xmlns="http://www.w3.org/2000/svg">
<path d="M10.1822 3.17702C6.68755 3.85906 3.87147 6.66809 3.18239 10.1521C1.88158 16.7264 7.81258 21.6273 12.281 20.9347C13.7295 20.7097 14.4397 19.0152 13.7752 17.7108C12.9631 16.1147 14.1233 14.2514 15.9163 14.2514H18.7183C19.9769 14.2514 20.9965 13.2108 21 11.9557C20.9824 6.41496 15.9409 2.05551 10.1822 3.17702ZM6.37465 14.2514C5.75237 14.2514 5.24962 13.7487 5.24962 13.1264C5.24962 12.5041 5.75237 12.0014 6.37465 12.0014C6.99693 12.0014 7.49968 12.5041 7.49968 13.1264C7.49968 13.7487 6.99693 14.2514 6.37465 14.2514ZM7.49968 9.75134C6.8774 9.75134 6.37465 9.2486 6.37465 8.62632C6.37465 8.00405 6.8774 7.5013 7.49968 7.5013C8.12196 7.5013 8.6247 8.00405 8.6247 8.62632C8.6247 9.2486 8.12196 9.75134 7.49968 9.75134ZM11.9998 7.5013C11.3775 7.5013 10.8748 6.99856 10.8748 6.37629C10.8748 5.75401 11.3775 5.25127 11.9998 5.25127C12.6221 5.25127 13.1248 5.75401 13.1248 6.37629C13.1248 6.99856 12.6221 7.5013 11.9998 7.5013ZM16.4999 9.75134C15.8776 9.75134 15.3749 9.2486 15.3749 8.62632C15.3749 8.00405 15.8776 7.5013 16.4999 7.5013C17.1222 7.5013 17.6249 8.00405 17.6249 8.62632C17.6249 9.2486 17.1222 9.75134 16.4999 9.75134Z" fill="#999B9E"/>
</svg>
